<svg width="458" height="190" viewBox="0 0 458 190" fill="none" xmlns="http://www.w3.org/2000/svg">
<g clip-path="url(#clip0_100_2)">
<path d="M25.2636 62.0811C35.613 57.2109 58.4568 53.2357 59.2481 95.4854C59.2481 95.527 58.4776 127.932 34.4052 131.554C14.1437 134.364 6.5013 124.311 6.45966 106.37C6.45966 103.228 6.68872 99.6063 7.18849 95.86C7.18849 95.86 6.064 102.687 6.10565 110.845C6.1473 119.982 7.56332 130.909 13.9979 137.361C22.265 145.831 23.7643 159.797 23.8267 167.352C23.8684 170.869 23.6185 173.054 23.6185 173.054C16.0386 173.117 8.47957 173.179 0.899691 173.242C0.878867 140.108 0.858043 106.995 0.837219 73.861C7.20931 70.6975 13.6231 67.6589 20.0784 64.7659C20.0784 64.7659 22.0984 63.4131 25.2844 62.0394L25.2636 62.0811ZM40.34 107.765C40.2567 101.688 38.5908 95.2357 37.0082 93.0711C33.843 88.8254 28.2622 80.8125 15.9137 85.537C14.8933 85.9116 13.748 86.3486 12.6027 86.9314C12.6027 86.8273 20.4325 92.5508 20.5574 103.873C20.6615 114.238 23.7226 124.602 32.073 123.145C32.5936 123.041 33.2391 122.937 33.8847 122.667C38.8199 120.71 40.4233 114.321 40.3192 107.765H40.34Z" fill="#231F20"/>
<path d="M115.577 32.4022C116.368 79.0434 117.159 125.685 117.95 172.326C111.745 172.347 105.519 172.388 99.3132 172.409C99.0008 155.197 98.6884 137.985 98.3761 120.794C91.3585 121.543 84.3616 122.334 77.3857 123.187C81.1964 136.029 85.3404 145.582 85.8401 172.492C78.8433 172.534 71.8257 172.576 64.8289 172.617C64.8289 172.617 63.5586 101.396 63.3296 89.2208C63.2671 77.5449 60.6433 46.9502 115.577 32.3813V32.4022ZM98.272 115.382C97.8555 92.0929 97.4182 68.8035 97.0017 45.535C97.0017 45.535 96.6061 45.639 95.9397 45.8055C91.1502 46.8878 70.8261 54.9007 71.43 86.2238C71.7007 100.855 73.9914 110.887 75.9696 118.213C83.3829 117.193 90.817 116.256 98.272 115.403V115.382Z" fill="#231F20"/>
<path d="M183.962 173.325C176.695 173.325 169.427 173.325 162.139 173.346C162.139 173.346 158.203 141.086 146.333 129.098C138.649 121.335 134.485 110.762 132.236 102.77C129.737 96.5052 128.55 88.6797 128.404 79.5637C128.342 75.1931 128.529 70.5934 128.987 65.5776C128.987 65.5776 127.925 74.6936 128.113 85.8908C128.321 98.6281 130.028 114.134 136.692 123.874C145.396 136.778 146.979 155.53 147.104 165.395C147.166 169.662 146.937 172.388 146.937 172.388C139.357 172.409 131.778 172.43 124.198 172.472C123.427 125.747 122.657 79.0226 121.886 32.3189C128.696 30.862 135.526 29.5508 142.398 28.3853C142.398 28.3853 144.543 27.4279 147.895 26.8868C159.057 24.8472 182.817 28.2396 183.192 78.6688C183.192 79.5221 182.005 118.005 155.912 119.212C153.122 119.358 150.581 119.129 148.312 118.483C153.309 123.437 160.285 127.766 168.74 134.239C183.358 145.498 183.962 173.346 183.962 173.304V173.325ZM138.316 54.4012C137.108 54.5885 135.901 54.755 134.714 55.1504C134.714 55.1088 143.043 65.2862 143.251 80.2714C143.46 94.195 146.458 108.452 154.975 107.911C161.639 107.474 163.68 99.4606 163.576 89.9492C163.492 82.2486 161.93 74.0692 160.14 70.6767C156.974 64.2664 151.165 52.4656 138.316 54.4012Z" fill="#231F20"/>
<path d="M241.686 19.748C241.582 70.531 241.457 121.293 241.353 172.076C235.126 172.076 228.921 172.076 222.694 172.076C222.674 152.699 222.653 133.323 222.632 113.946C215.552 113.988 208.472 114.071 201.392 114.238C205.077 129.722 209.117 141.044 209.221 172.076C202.204 172.076 195.207 172.076 188.189 172.097C188.189 172.097 187.565 86.2654 187.44 71.5925C187.356 57.4398 185.336 19.8313 241.686 19.748ZM222.632 107.848C222.59 81.6242 222.569 55.421 222.528 29.197C222.528 29.197 222.111 29.197 221.445 29.197C216.551 29.1138 195.519 32.3605 195.769 69.7609C195.873 87.1187 198.101 99.3566 200.017 108.202C207.555 108.015 215.094 107.89 222.632 107.848Z" fill="#231F20"/>
<path d="M262.072 20.8513C280.98 21.8295 310.3 35.2537 309.509 90.1576C308.343 172.284 274.296 172.368 274.296 172.305C265.029 172.305 255.783 172.284 246.517 172.264C246.683 122.209 246.829 72.1754 246.996 22.1209C246.996 22.1209 253.388 20.2686 262.072 20.8305V20.8513ZM288.831 108.993C289.372 59.2924 276.461 40.1031 261.822 39.2289C258.844 39.0624 255.867 39.5203 253.014 40.8315C253.014 40.8315 253.159 40.8315 253.555 40.8523C256.533 40.9356 268.444 43.6828 268.194 77.5034C267.923 116.153 267.653 156.425 267.653 156.425C267.653 157.029 267.465 165.687 272.88 165.708C278.044 165.708 288.352 152.804 288.81 108.993H288.831Z" fill="#231F20"/>
<path d="M330.624 172.471C324.627 172.451 318.63 172.43 312.633 172.409C313.299 123.999 313.986 75.5675 314.652 27.1572C320.754 28.177 326.834 29.3217 332.894 30.5705C332.144 77.8777 331.374 125.164 330.624 172.471Z" fill="#231F20"/>
<path d="M391.867 54.2556C391.617 68.1584 384.579 72.2793 377.853 70.7392C373.771 69.761 369.981 66.8056 367.545 62.2892C363.068 54.0682 357.82 49.3229 354.363 48.5321C351.573 47.8869 349.949 49.9473 349.866 54.0058C349.761 59.1465 353.447 64.0375 365.962 75.9216C381.08 90.8234 402.654 117.235 402.258 141.024C402.237 142.647 402.196 144.458 401.904 146.06C397.906 172.076 379.623 173.096 366.816 172.992C351.219 172.95 346.034 166.727 340.391 156.259C337.704 151.326 335.206 141.044 335.393 130.492C335.643 115.174 343.618 99.9186 358.861 102.146C365.879 103.145 366.795 109.721 366.816 109.721C361.527 109.784 351.844 123.666 351.511 142.855C351.302 154.448 355.259 163.168 367.399 163.751C382.08 163.98 382.955 144.562 382.955 144.229C383.059 117.36 365.004 101.334 352.219 87.4518C341.786 76.2546 341.057 62.5182 341.14 57.877C341.515 35.3368 352.094 35.3993 355.925 36.4399C356.987 36.7105 357.654 37.0643 357.654 37.0643C369.003 39.9781 380.289 43.3081 391.472 47.0127C391.826 49.6768 391.909 52.0702 391.867 54.2764V54.2556Z" fill="#231F20"/>
<path d="M457.775 139.525C457.775 150.764 457.775 162.024 457.754 173.262C446.842 173.158 435.91 173.075 424.998 172.992C418.959 172.95 412.941 172.909 406.902 172.867C407.569 132.844 408.235 92.8214 408.881 52.7986C425.456 58.98 441.803 66.0563 457.817 74.0275C457.817 85.2664 457.817 96.526 457.796 107.765C457.796 107.931 450.841 84.7461 444.573 77.0245C442.428 74.423 439.263 72.6331 436.222 71.3843C432.141 69.6985 428.163 69.199 426.373 68.9909C426.144 86.0781 425.915 103.165 425.706 120.232C429.621 120.669 436.139 119.274 436.91 105.85C436.805 115.799 436.701 125.726 436.618 135.675C436.618 133.656 435.827 125.06 425.665 123.104C425.477 136.653 425.311 150.202 425.123 163.73C426.956 164.417 431.037 165.603 435.244 165.749C438.409 165.853 441.574 165.395 443.948 163.813C450.591 159.172 457.796 139.338 457.775 139.504V139.525ZM436.597 136.133C436.597 135.987 436.597 135.841 436.597 135.696C436.597 135.987 436.597 136.133 436.597 136.133Z" fill="#231F20"/>
<path d="M293.079 189.101C292.954 189.038 292.829 188.934 292.683 188.914C288.956 188.164 285.166 188.102 281.355 187.977C277.315 187.831 273.296 187.248 269.486 185.833C268.549 185.479 267.674 184.938 266.883 184.335C266.008 183.648 266.029 182.753 266.945 182.087C267.82 181.463 268.798 180.984 269.756 180.484C270.11 180.297 270.527 180.193 270.902 180.089C271.589 179.881 272.151 179.548 272.692 179.069C274.921 177.029 277.524 175.781 280.564 175.51C282.147 175.364 283.521 174.678 284.791 173.699C285.999 172.784 287.207 171.868 288.456 171.035C289.643 170.245 291.059 170.016 292.454 169.849C295.661 169.474 298.868 169.141 302.075 168.788C302.366 168.746 302.658 168.746 302.95 168.767C303.366 168.767 303.47 168.58 303.429 168.184C303.137 165.395 302.908 162.606 302.596 159.838C302.325 157.382 301.971 154.947 301.617 152.491C301.263 150.077 300.888 147.663 300.492 145.248C300.138 143.23 299.763 141.19 299.347 139.192C298.868 136.882 298.368 134.551 297.827 132.261C297.244 129.785 296.682 127.308 295.974 124.873C294.932 121.21 293.87 117.526 292.663 113.905C291.371 110.075 289.976 106.308 288.498 102.541C286.749 98.0661 284.687 93.7371 282.396 89.5329C282.126 89.0126 281.834 88.5131 281.522 88.0136C281.418 87.8471 281.209 87.7639 281.043 87.639C280.939 87.8055 280.751 87.972 280.73 88.1593C280.501 89.8659 280.293 91.5726 280.106 93.3C280.043 93.966 280.043 94.6112 280.002 95.2772C279.981 95.8184 279.689 96.193 279.169 96.2346C278.69 96.2762 278.669 96.5052 278.731 96.8798C279.002 98.8154 279.273 100.772 279.523 102.707C279.564 103.04 279.523 103.394 279.523 103.748C279.46 103.769 279.419 103.81 279.356 103.831C278.856 102.957 278.357 102.104 277.857 101.23C277.815 101.23 277.753 101.23 277.711 101.25C278.107 104.143 278.815 107.016 278.981 109.929C278.919 109.95 278.856 109.971 278.794 109.992C278.336 109.097 277.878 108.181 277.42 107.286C277.357 107.286 277.315 107.328 277.253 107.328C277.295 107.89 277.336 108.472 277.42 109.034C277.628 110.616 277.836 112.198 278.044 113.78C278.107 114.3 278.232 114.82 278.294 115.341C278.315 115.549 278.232 115.778 278.211 115.986C278.003 115.944 277.774 115.923 277.565 115.861C277.357 115.799 277.17 115.674 276.878 115.507C277.024 116.444 277.19 117.235 277.274 118.026C277.378 119.004 277.399 120.003 277.42 120.981C277.42 121.21 277.232 121.418 277.128 121.647C276.899 121.522 276.587 121.46 276.462 121.272C275.837 120.336 275.15 119.42 274.692 118.421C273.317 115.424 272.568 112.26 272.359 108.972C272.359 108.805 272.318 108.639 272.297 108.472C272.255 108.472 272.193 108.472 272.151 108.472C272.005 109.055 271.88 109.638 271.672 110.2C271.485 110.741 271.235 111.282 270.964 111.907C270.006 110.658 270.964 102.145 272.068 98.2743C273.338 93.8412 275.316 89.7827 278.211 86.1613C276.753 86.7024 275.879 88.0136 274.546 88.7212C274.483 88.7004 274.421 88.6588 274.358 88.638C274.504 88.1593 274.629 87.7014 274.775 87.2227C274.754 87.2019 274.733 87.1811 274.692 87.1395C274.546 87.2852 274.379 87.41 274.233 87.5765C272.922 88.9294 271.61 90.2822 270.298 91.635C270.152 91.7807 269.965 91.9056 269.798 92.0513C269.402 92.4467 269.09 92.2386 268.965 91.8432C268.736 91.0523 268.59 90.2198 268.403 89.4081C268.361 89.2207 268.361 89.0334 268.34 88.6796C268.132 88.9086 268.028 88.9918 267.965 89.1167C267.07 90.9482 266.154 92.7797 265.258 94.5904C265.175 94.7569 265.092 94.9026 264.988 95.0483C264.55 95.6519 264.092 95.6727 263.613 95.0899C263.405 94.8402 263.259 94.5488 263.051 94.2158C262.926 94.3823 262.843 94.4655 262.78 94.5696C261.781 96.2346 260.781 97.8996 259.782 99.5647C259.719 99.6895 259.636 99.7936 259.553 99.8977C258.865 100.709 258.47 100.668 257.928 99.6271C257.179 101.854 256.492 104.039 255.2 105.913C255.117 105.913 255.034 105.913 254.951 105.913C254.742 105.059 254.513 104.206 254.305 103.353H254.18C254.034 104.123 253.93 104.934 253.743 105.704C253.576 106.454 253.493 107.265 252.827 108.056C252.577 107.432 252.368 106.932 252.16 106.454C252.098 106.454 252.056 106.433 251.994 106.412C251.619 108.139 251.265 109.867 250.869 111.657C250.099 111.553 249.89 110.72 249.245 110.366C248.912 112.302 248.995 114.3 248.058 116.236C246.267 113.696 246.704 111.012 246.996 108.327C246.205 108.181 246.121 108.16 246.225 107.265C246.413 105.746 246.746 104.248 247.017 102.749C247.017 102.645 247.079 102.52 247.121 102.374C246.538 102.333 246.559 101.916 246.725 101.583C247.162 100.668 247.579 99.7103 248.162 98.8778C250.578 95.4021 253.243 92.1345 256.741 89.6578C260.281 87.1603 264.217 85.5369 268.465 84.7252C269.631 84.4963 270.818 84.3922 271.984 84.2049C272.109 84.2049 272.234 84.1425 272.401 83.976C272.172 83.9135 271.922 83.8095 271.693 83.8303C270.839 83.8719 269.985 83.9551 269.132 84.0176C268.986 84.0176 268.84 84.0176 268.694 83.9968C268.694 83.8303 268.694 83.643 268.757 83.5181C269.132 82.9561 269.548 82.415 269.965 81.8739C270.048 81.749 270.131 81.6449 270.131 81.3952C269.652 81.5825 269.173 81.7282 268.694 81.9363C267.216 82.5815 265.758 83.2475 264.28 83.8927C264.051 83.9968 263.738 83.9551 263.488 83.9968C263.488 83.7262 263.509 83.4348 263.53 83.1643C263.53 83.1018 263.572 83.0186 263.655 82.748C260.76 83.8303 258.095 85.0582 255.284 86.2445C255.388 85.079 256.2 84.3298 256.512 83.3099C256.221 83.5389 255.929 83.7678 255.638 83.976C254.076 85.1415 252.514 86.2862 250.952 87.4309C250.723 87.5974 250.411 87.6806 250.078 87.743C250.349 85.9532 251.473 84.6003 252.16 83.0186C250.765 83.5805 249.661 84.5587 248.495 85.412C247.329 86.2654 246.288 87.306 244.809 87.8471C244.809 86.8481 245.538 86.2653 245.767 85.4536C244.913 86.1821 244.289 87.1603 243.268 87.6598C243.206 87.6182 243.123 87.5974 243.06 87.5557C243.206 87.0354 243.331 86.5151 243.518 86.0156C244.934 82.1028 247.954 79.855 251.66 78.3773C252.16 78.1692 252.681 78.0235 253.201 77.7738C252.722 77.5448 252.181 77.4616 252.16 76.6915C252.972 76.4834 253.784 76.2336 254.638 76.0463C258.053 75.2971 261.489 75.1306 264.967 75.3387C269.423 75.6093 273.359 77.1702 276.67 80.2297C276.774 80.3337 276.899 80.417 277.086 80.4586C276.233 78.3773 275.316 76.3169 274.962 74.0899C275.004 74.0483 275.066 74.0067 275.108 73.9651C275.275 74.2564 275.42 74.5478 275.587 74.8392C275.67 74.7767 275.774 74.7143 275.858 74.6727C275.879 74.4437 275.92 74.194 275.92 73.9651C275.754 70.4893 277.399 68.0751 280.293 66.3684C280.585 66.2019 280.939 66.1187 281.272 66.0354C281.418 65.9938 281.668 66.0354 281.73 66.1603C281.813 66.2644 281.772 66.4933 281.73 66.639C281.397 67.3466 281.022 68.0126 280.689 68.7203C280.585 68.9284 280.564 69.1781 280.481 69.4071C280.522 69.4487 280.564 69.4695 280.606 69.5111C280.96 69.3238 281.314 69.1365 281.688 68.9284L281.834 68.9908C281.334 70.2188 280.814 71.4675 280.314 72.6955C280.376 72.7371 280.439 72.7787 280.522 72.8204C280.814 72.6122 281.084 72.4041 281.376 72.196C281.418 72.196 281.459 72.2376 281.48 72.2584C281.105 73.2158 280.71 74.1732 280.335 75.1306C280.397 75.1722 280.46 75.2138 280.522 75.2554C280.731 75.0889 280.939 74.9432 281.293 74.6935C280.918 76.8164 280.481 78.7936 280.647 80.8332C280.689 80.8332 280.751 80.8541 280.793 80.8749C280.876 80.6251 280.96 80.3962 281.022 80.1464C281.938 75.8174 284.166 72.3208 287.644 69.5528C290.997 66.8679 294.662 64.7658 298.743 63.4338C298.972 63.3506 299.264 63.4338 299.514 63.4338C299.43 63.7252 299.368 64.0374 299.285 64.3288C299.264 64.4328 299.16 64.4953 299.139 64.7034C299.763 64.5577 300.367 64.3912 300.992 64.2455C305.074 63.3506 308.905 63.7876 312.299 66.4517C312.549 66.639 312.799 66.7847 312.987 67.0761C311.758 67.5131 310.717 66.9304 309.592 66.9304C310.28 67.3258 310.967 67.7212 311.675 68.1167C311.654 68.1999 311.633 68.2624 311.591 68.3456C311.3 68.3873 311.008 68.4913 310.717 68.4913C308.634 68.4289 306.552 68.3248 304.47 68.2416C303.949 68.2416 303.428 68.2416 302.929 68.2416C302.929 68.3248 302.887 68.4081 302.887 68.4913C303.054 68.5954 303.199 68.6994 303.366 68.8035C304.49 69.4071 305.636 69.9898 306.76 70.6142C306.969 70.7183 307.114 70.9472 307.281 71.2178C304.678 71.6548 302.096 71.2178 299.493 71.1762C300.305 71.8005 301.367 71.9878 302.158 72.8204C299.18 73.4031 296.307 73.9859 293.266 74.5686C293.558 74.8392 293.683 74.9432 293.829 75.0681C294.287 75.4844 294.224 75.7341 293.62 75.8798C293.204 75.9839 292.767 75.9839 292.35 76.0671C290.705 76.3793 289.081 76.6915 287.436 77.0037C287.332 77.0037 287.248 77.1078 287.061 77.2118C288.04 77.6489 289.123 77.6281 289.955 78.4814C288.519 79.0642 287.29 79.855 286.228 80.854C286.228 80.8957 286.27 80.9581 286.29 80.9997C286.457 80.9581 286.624 80.9165 286.769 80.854C289.726 79.6469 292.767 78.7728 295.932 78.2525C298.826 77.7946 301.742 77.6697 304.657 77.9403C307.572 78.2108 310.404 78.8977 313.112 80.0007C316.194 81.2703 319.275 82.5399 322.378 83.8095C322.649 83.9135 322.878 84.08 323.128 84.2257C323.107 84.2881 323.086 84.3714 323.065 84.4338L319.442 83.3932C319.442 83.3932 319.4 83.4556 319.38 83.4973C319.525 83.6221 319.671 83.7678 319.838 83.8719C321.795 85.1623 323.399 86.8065 324.794 88.6796C324.919 88.8461 325.023 89.0543 325.106 89.2416C325.377 89.8035 325.314 89.97 324.69 90.1781C325.793 92.634 327.251 95.0067 327.022 97.8996C324.919 96.1514 323.523 93.7995 321.858 91.5101C321.712 92.1345 321.629 92.5924 321.483 93.0503C321.441 93.196 321.316 93.3208 321.212 93.4665C321.066 93.3625 320.879 93.2792 320.796 93.1335C319.546 91.1771 318.318 89.2207 317.089 87.2852C316.943 87.0562 316.797 86.8273 316.568 86.64C316.777 88.2009 317.526 89.6578 317.38 91.3853C315.964 90.4695 315.09 89.1791 313.965 88.0761L314.736 90.6568C314.736 90.6568 314.59 90.7609 314.528 90.8025C312.466 89.8243 310.738 88.3674 309.051 86.8273C309.009 86.9105 308.947 86.9522 308.968 86.9938C309.03 87.9512 308.718 88.2426 307.864 87.8471C306.198 87.0562 304.574 86.1821 302.95 85.3288C302.596 85.1415 302.262 84.9333 301.804 84.6836C301.804 85.0166 301.763 85.2455 301.763 85.4745C301.742 86.5775 301.263 86.8689 300.326 86.2862C299.139 85.5577 297.993 84.746 296.827 83.976C296.119 83.5181 295.411 83.081 294.682 82.6439C294.641 82.6856 294.599 82.7272 294.558 82.748C294.787 83.3516 295.036 83.9551 295.245 84.5587C295.37 84.9333 295.453 85.3496 295.515 85.745C295.578 86.1821 295.39 86.3694 294.932 86.2654C293.745 85.9948 292.558 85.7242 291.371 85.4328C290.455 85.2039 289.539 84.8917 288.644 84.642C288.519 84.6003 288.352 84.6211 288.081 84.6003C288.539 85.0166 288.893 85.3288 289.247 85.641C289.206 85.7242 289.185 85.8075 289.143 85.8907C287.686 85.6826 286.207 85.4953 284.75 85.2872C284.729 85.3496 284.687 85.412 284.666 85.4745C284.77 85.641 284.854 85.8283 284.979 85.9948C288.56 90.6776 291.309 95.86 293.766 101.209C296.14 106.391 298.181 111.719 299.93 117.151C301.513 122.105 302.991 127.121 304.366 132.137C305.428 135.987 306.323 139.879 307.218 143.771C308.051 147.496 308.843 151.243 309.551 154.989C310.217 158.506 310.758 162.024 311.321 165.562C311.446 166.373 311.508 167.185 311.591 167.997C311.633 168.392 311.758 168.6 312.237 168.621C314.965 168.788 317.672 168.996 320.379 169.204C320.733 169.225 320.837 169.1 320.879 168.767C321.212 165.062 321.524 161.378 321.899 157.674C322.149 155.28 322.461 152.887 322.815 150.514C323.274 147.475 323.815 144.458 324.336 141.44C324.794 138.817 325.273 136.216 325.814 133.614C326.397 130.825 327.043 128.036 327.688 125.268C328.375 122.334 329.083 119.42 329.854 116.506C330.666 113.426 331.499 110.366 332.394 107.307C333.456 103.727 334.518 100.127 335.726 96.5884C337.621 91.0106 339.537 85.4328 341.64 79.9175C343.972 73.861 346.471 67.8461 349.054 61.8937C351.99 55.1088 355.238 48.4487 358.674 41.9135C360.132 39.1246 361.631 36.3565 363.11 33.5884C363.151 33.526 363.172 33.4428 363.255 33.2346C362.651 33.1306 362.11 32.9224 361.548 32.9432C360.257 33.0057 358.966 33.1514 357.675 33.2971C356.883 33.3803 356.092 33.5468 355.301 33.6301C355.051 33.6509 354.78 33.5884 354.509 33.5676C354.468 33.5052 354.426 33.4428 354.405 33.3803L356.217 31.7985C356.217 31.7985 356.175 31.7361 356.175 31.6945C355.53 31.8818 354.863 32.0691 354.218 32.2564C351.719 32.9224 349.241 33.5884 346.742 34.2544C346.534 34.3169 346.326 34.2961 346.097 34.3169C345.284 34.4001 344.972 34.1088 345.201 33.3387C345.576 32.0483 346.076 30.7787 346.513 29.4883C346.575 29.3218 346.617 29.1762 346.742 28.864C346.451 29.0096 346.284 29.0721 346.138 29.1762C343.66 30.7995 341.203 32.4229 338.725 34.0255C338.288 34.2961 337.809 34.5458 337.309 34.6915C336.684 34.8996 336.226 34.6291 336.08 33.9839C335.955 33.3595 335.914 32.7351 335.83 32.0067C335.039 32.4646 334.31 32.9224 333.561 33.3387C331.541 34.4209 329.521 35.4824 327.48 36.5022C327.126 36.6895 326.71 36.7728 326.314 36.8144C325.543 36.8977 325.252 36.6063 325.273 35.8154C325.273 35.5865 325.335 35.3575 325.377 34.9829C322.795 37.418 320.129 39.5409 316.943 41.1851C316.693 39.5201 317.61 38.2713 317.859 36.856C317.714 37.0225 317.547 37.189 317.401 37.3555C316.131 38.7292 314.882 40.1028 313.591 41.4348C313.424 41.6013 313.132 41.643 312.903 41.747C312.841 41.4764 312.674 41.1851 312.737 40.9353C313.132 39.1246 313.591 37.3139 314.028 35.5032C314.09 35.2743 314.174 35.0245 314.236 34.7956C314.194 34.7748 314.153 34.7331 314.111 34.7123C313.965 34.9205 313.799 35.1078 313.674 35.3159C311.675 38.4586 309.676 41.6221 307.677 44.7649C307.572 44.9314 307.343 45.1395 307.218 45.1187C307.073 45.077 306.906 44.8481 306.844 44.6608C306.698 44.2445 306.615 43.8075 306.51 43.3704C306.427 43.0166 306.365 42.6628 306.261 42.1216C303.845 45.5557 301.7 49.0106 298.722 51.7787C298.66 51.7787 298.577 51.7787 298.514 51.7579C298.472 51.196 298.368 50.634 298.431 50.0721C298.701 47.3873 299.784 44.9522 300.909 42.5379C301.284 41.747 301.679 40.9769 302.054 40.2277C302.012 40.1653 301.992 40.1028 301.971 40.1028C301.055 39.8947 300.909 39.6657 301.388 38.8541C302.012 37.8342 302.72 36.8352 303.491 35.9195C305.344 33.7549 307.447 31.861 309.884 30.3417C309.946 30.3 310.009 30.2584 310.05 30.2168C310.05 30.1543 310.009 30.1127 310.009 30.0503C309.405 30.2376 308.822 30.4249 308.218 30.6122C307.572 30.8204 306.948 31.0909 306.281 31.2574C305.657 31.4239 304.99 31.4864 304.366 31.5904C304.345 31.528 304.324 31.4655 304.303 31.4031C304.532 31.2574 304.74 31.0701 304.99 30.966C308.051 29.634 311.092 28.2812 314.194 27.0116C316.589 26.0334 318.984 25.0761 321.42 24.2644C323.524 23.5775 325.668 23.0156 327.813 22.5577C331.978 21.7044 336.184 21.4755 340.412 21.8501C343.14 22.0998 345.847 22.5161 348.533 23.0156C351.761 23.5984 354.884 24.6182 357.945 25.8045C358.049 25.8461 358.154 25.8461 358.258 25.8669L358.341 25.7212C357.82 25.3258 357.321 24.8679 356.758 24.5349C355.925 24.0354 355.051 23.6192 354.218 23.1613C354.01 23.0364 353.864 22.8491 353.676 22.6826C353.843 22.4953 353.968 22.2455 354.176 22.1623C355.197 21.7876 356.217 21.4546 357.258 21.1008C357.425 21.0384 357.591 20.9968 357.758 20.9343C357.758 20.8719 357.758 20.8303 357.758 20.7678C357.237 20.6221 356.717 20.4556 356.175 20.3724C353.739 19.9353 351.282 19.4983 348.845 19.0612C348.45 18.9987 348.033 18.9155 347.658 18.7698C347.242 18.6241 347.138 18.3119 347.471 17.9581C347.762 17.6459 348.096 17.3754 348.554 16.9383C344.097 16.0642 339.766 15.2108 335.289 14.3159C336.538 13.0255 338.121 12.6509 339.495 11.9224V11.7351C338.912 11.7767 338.35 11.8392 337.788 11.8808C334.727 12.0681 331.666 12.5052 328.584 12.193C328.584 12.193 328.542 12.193 328.521 12.193C328.271 12.0889 328.001 11.9849 327.751 11.8808C327.917 11.6311 328.042 11.2981 328.271 11.1732C330.021 10.195 331.811 9.2376 333.581 8.28022C333.81 8.15534 334.06 8.05128 334.289 7.9264C334.289 7.86396 334.289 7.80152 334.289 7.73909C334.019 7.67665 333.727 7.55177 333.456 7.57258C330.999 7.65583 328.563 7.7599 326.106 7.84315C324.773 7.88477 323.419 7.88477 322.087 7.88477C321.983 7.88477 321.878 7.88477 321.795 7.82234C321.608 7.71827 321.462 7.5934 321.275 7.48933C321.379 7.34364 321.462 7.1147 321.608 7.03145C322.337 6.6152 323.065 6.24057 323.815 5.84513C324.086 5.69944 324.356 5.57457 324.606 5.38725C322.857 5.59538 321.191 6.36545 319.213 6.03245C319.442 5.69944 319.567 5.42888 319.775 5.26238C322.649 2.82729 325.939 1.32878 329.729 1.01659C333.144 0.725211 336.476 1.16228 339.724 2.22372C339.808 2.24454 339.912 2.24454 340.183 2.28616C339.974 2.07804 339.87 1.97397 339.766 1.8491C339.6 1.66178 339.35 1.47447 339.308 1.26634C339.245 0.891712 339.35 0.475458 339.37 0.10083C339.662 0.121643 339.974 0.10083 340.245 0.204894C343.868 1.3704 347.283 2.97298 350.553 4.90856C353.989 6.9482 357.175 9.34166 360.007 12.1722C362.964 15.1276 364.9 18.7074 366.129 22.6826C366.441 23.6816 366.629 24.7222 366.9 25.7212C366.941 25.9294 367.024 26.1167 367.17 26.304C367.462 23.2029 366.816 20.1643 366.296 17.1256C366.358 17.1048 366.421 17.084 366.483 17.0632C366.795 17.3337 367.129 17.6043 367.441 17.8957C367.483 17.8541 367.545 17.8332 367.587 17.7916C367.358 16.189 366.296 14.857 366.067 13.2336C366.525 13.5875 366.962 13.9621 367.42 14.3159C367.483 14.2743 367.545 14.2535 367.608 14.2118C367.524 13.9205 367.483 13.6083 367.378 13.3169C366.816 11.9432 366.212 10.5696 365.629 9.19597C365.525 8.94622 365.463 8.69647 365.484 8.36347C366.067 8.69647 366.65 9.00866 367.212 9.34166C367.274 9.34166 367.316 9.30004 367.378 9.27922C367.337 9.02947 367.378 8.73809 367.254 8.50915C366.733 7.40608 366.171 6.32382 365.629 5.22075C365.504 4.95019 365.484 4.638 365.421 4.36743C365.754 4.30499 366.108 4.13849 366.4 4.20093C367.628 4.42987 368.607 5.1375 369.544 5.88676C371.106 7.1147 372.397 8.57159 373.23 10.4031C374.063 12.2138 374.334 14.1078 374.188 16.085C374.188 16.3972 374.23 16.7094 374.25 17.0215C374.334 17.0632 374.396 17.084 374.479 17.1256C374.854 16.6885 375.208 16.2515 375.687 15.6687C375.146 19.2901 373.792 22.4745 372.314 25.638C372.355 25.6796 372.397 25.7004 372.439 25.7421C372.564 25.6588 372.709 25.5756 372.814 25.4715C376.041 22.4328 379.727 20.1851 384.017 19.0404C385.87 18.5617 387.786 18.3119 389.702 18.1038C392.992 17.7292 396.303 17.7916 399.614 18.1038C402.8 18.416 405.923 18.9987 408.985 19.8937C409.463 20.0394 409.568 20.3308 409.276 20.643C409.026 20.9551 408.651 21.1633 408.297 21.3922C408.131 21.4963 407.902 21.4755 407.673 21.642C407.985 21.746 408.277 21.8709 408.589 21.975C412.379 23.2029 415.815 25.0344 418.584 27.9482C420.667 30.1335 421.999 32.7351 422.749 35.6489C422.791 35.8362 422.728 36.0443 422.707 36.2525C422.499 36.2108 422.208 36.2317 422.083 36.086C421.083 35.1494 420.125 34.192 419.167 33.2554C419.022 33.1097 418.897 32.9641 418.751 32.8184C418.709 32.8392 418.668 32.8808 418.626 32.9016C418.813 33.2138 419.022 33.526 419.188 33.859C419.542 34.5458 419.938 35.2118 420.229 35.9195C420.438 36.3982 420.229 36.6063 419.73 36.419C419.271 36.2317 418.793 36.0027 418.397 35.7113C416.106 34.0255 413.857 32.3189 411.567 30.633C411.046 30.2584 410.505 29.9254 409.942 29.5924C409.755 29.4883 409.547 29.4467 409.339 29.3635C409.297 29.4051 409.255 29.4467 409.214 29.4883C409.463 29.9254 409.755 30.3625 409.984 30.7995C410.817 32.4646 411.65 34.1296 412.441 35.7946C412.525 35.9611 412.441 36.19 412.441 36.3982C412.212 36.3982 411.942 36.4398 411.775 36.3357C410.546 35.5656 409.276 34.8164 408.11 33.9631C406.382 32.6727 404.716 31.299 403.008 29.967C402.925 29.9046 402.821 29.8422 402.675 29.8213C403.362 31.2366 404.466 32.4437 404.778 34.2336C400.572 32.4646 396.532 30.7579 392.346 28.9888C392.471 29.5924 392.596 30.0087 392.659 30.4457C392.721 30.9244 392.45 31.1325 392.034 30.966C391.243 30.6539 390.472 30.2584 389.702 29.9254C387.432 28.968 385.162 28.0106 382.892 27.0741C382.788 27.0324 382.663 27.0533 382.413 27.0324C382.976 27.6985 383.454 28.2604 383.913 28.8431C384.246 29.2802 384.558 29.7173 384.808 30.2168C385.12 30.8204 384.912 31.0701 384.246 30.9452C382.684 30.6122 381.122 30.5498 379.54 30.7787C379.394 30.7787 379.248 30.8204 379.123 30.9869C379.581 31.0493 380.06 31.1534 380.539 31.195C386.953 31.8194 393.033 33.6301 398.656 36.7728C402.987 39.1871 406.777 42.2881 410.005 46.0761C412.316 48.8025 414.586 51.5706 416.419 54.6509C416.835 55.3585 417.127 56.1494 417.439 56.9195C417.522 57.086 417.543 57.2941 417.543 57.4814C417.543 58.0017 417.397 58.1058 416.835 57.9809C417.043 58.7718 417.293 59.521 417.439 60.2911C417.731 61.8104 417.98 63.3506 418.23 64.8907C418.293 65.2653 418.272 65.6816 418.23 66.0562C418.126 66.9304 417.918 67.0552 416.981 66.7639C417.085 67.5131 417.21 68.1999 417.293 68.8868C417.606 71.8005 417.668 74.6727 416.294 77.3783C416.085 77.7946 415.794 78.1484 415.544 78.5438C415.482 78.5438 415.419 78.5438 415.336 78.5438C415.148 78.1068 414.857 77.7113 414.794 77.2535C414.44 75.2762 414.149 73.2782 413.836 71.2802C413.774 70.8431 413.732 70.4061 413.67 69.8233C413.482 70.0106 413.378 70.1147 413.274 70.2188C412.795 70.7183 412.337 71.2594 411.817 71.7173C411.421 72.0711 411.192 71.9254 411.088 71.4051C410.609 68.9908 410.109 66.5765 409.63 64.1623C409.63 64.0998 409.547 64.0374 409.443 63.8709C409.026 64.745 409.109 65.744 408.235 66.4725C407.985 65.973 407.652 65.5567 407.548 65.078C407.152 63.309 406.819 61.4983 406.465 59.7084C406.444 59.5835 406.402 59.4586 406.361 59.3337C406.298 59.3337 406.257 59.3337 406.194 59.3129C406.152 59.5002 406.09 59.7084 406.048 59.8957C405.861 60.8322 405.674 61.7688 405.465 62.6846C405.403 62.9343 405.174 63.1216 405.028 63.3506C404.841 63.1841 404.57 63.0384 404.466 62.8094C403.82 61.5815 403.154 60.3744 402.633 59.1048C401.988 57.4814 401.488 55.8164 400.926 54.1722C400.926 54.1514 400.863 54.1306 400.78 54.0473C400.697 54.2346 400.613 54.3803 400.551 54.5468C400.239 55.3793 399.593 55.6083 398.989 54.9631C398.219 54.1306 397.49 53.2148 396.907 52.2574C395.72 50.3218 394.637 48.3238 393.512 46.3466C393.45 46.2426 393.346 46.1385 393.242 45.9928C392.992 46.4299 392.763 46.8045 392.513 47.1791C391.805 48.1989 390.951 48.2406 390.326 47.1791C389.722 46.1385 389.264 45.0354 388.723 43.9532C387.786 42.0592 386.828 40.1653 385.87 38.2713C385.808 38.1464 385.703 38.0424 385.516 37.7926C385.391 38.75 385.308 39.5409 385.141 40.3318C385.016 41.0186 384.85 41.7054 384.6 42.3506C384.225 43.3288 383.913 43.4328 383.142 42.7252C381.955 41.6638 380.81 40.5399 379.706 39.3952C378.54 38.2089 377.436 36.9809 376.312 35.7946C376.187 35.6697 376.062 35.5656 375.812 35.524C375.958 35.857 376.145 36.19 376.229 36.523C376.333 36.9393 376.374 37.3764 376.458 37.7926C376.062 37.6261 375.625 37.522 375.312 37.2723C374.021 36.2941 372.751 35.2535 371.46 34.2544C371.273 34.1088 371.064 34.0255 370.877 33.9006L370.752 34.0047C370.835 34.1504 370.919 34.3169 371.023 34.4418C374.646 38.7916 377.249 43.7034 379.061 49.0523C380.185 52.3823 380.956 55.7956 381.476 59.2921C382.038 63.0176 382.33 66.7431 382.143 70.5101C382.143 70.9056 382.059 71.2802 381.997 71.6548C381.976 71.8005 381.83 71.9254 381.747 72.0711C381.601 71.9878 381.393 71.9254 381.33 71.8005C381.018 71.1137 380.706 70.4269 380.477 69.6984C380.227 68.9284 380.081 68.1167 379.894 67.3258C379.852 67.1801 379.769 67.0552 379.644 66.8055C379.56 67.0552 379.498 67.1801 379.498 67.305C379.498 72.3209 378.186 77.0661 376.249 81.6241C375.646 83.0602 374.708 84.3506 373.896 85.7034C373.73 85.974 373.48 86.2237 373.23 86.4318C373.001 86.5984 372.564 86.8481 372.439 86.744C372.189 86.5775 371.96 86.1821 371.981 85.8907C372.022 84.2673 372.105 82.6231 372.251 80.9997C372.355 79.9175 372.584 78.856 372.793 77.6489C372.355 77.8778 372.064 78.1068 371.71 78.2317C371.397 78.3357 371.064 78.3149 370.731 78.3565C370.71 78.0235 370.606 77.6905 370.648 77.3575C370.939 75.2346 371.314 73.1325 371.585 71.0096C371.814 69.2822 371.981 67.5339 372.168 65.7857C372.168 65.64 372.168 65.4943 372.064 65.3278C371.335 66.7847 370.585 68.2208 369.857 69.6776C369.773 69.6568 369.711 69.636 369.627 69.6152C369.627 67.3674 370.086 65.1613 370.44 62.9343C370.773 60.7282 371.189 58.522 371.502 56.2951C370.606 57.6479 370.086 59.2297 368.961 60.3952C368.899 60.3952 368.857 60.3536 368.795 60.3536C368.795 59.8541 368.753 59.3545 368.795 58.8759C369.107 56.3991 369.44 53.9432 369.752 51.4874C369.836 50.8422 369.94 50.1762 370.044 49.531C370.106 49.198 369.961 49.1355 369.669 49.1147C368.524 49.0106 368.107 48.5736 368.045 47.4081C367.962 45.8887 367.982 44.3694 367.857 42.8501C367.691 41.0186 367.379 39.2079 367.129 37.3763C367.108 37.189 367.004 37.0225 366.9 36.7312C366.712 37.0433 366.608 37.2098 366.525 37.3972C363.13 44.1405 360.007 51.0087 357.196 58.0225C355.238 62.8511 353.322 67.7212 351.532 72.6122C349.762 77.4824 348.137 82.3942 346.534 87.306C345.243 91.2812 344.077 95.2772 342.931 99.2733C341.994 102.562 341.14 105.871 340.308 109.159C339.516 112.24 338.787 115.341 338.079 118.442C337.538 120.835 337.08 123.229 336.601 125.622C336.143 127.953 335.685 130.263 335.268 132.594C334.852 134.925 334.477 137.277 334.123 139.608C333.706 142.335 333.29 145.061 332.936 147.788C332.644 149.931 332.415 152.075 332.207 154.219C331.978 156.487 331.77 158.756 331.603 161.004C331.416 163.314 331.291 165.624 331.124 167.934C331.083 168.475 331.083 169.017 330.999 169.558C330.916 170.078 331.083 170.307 331.624 170.349C333.227 170.473 334.852 170.598 336.455 170.765C339.787 171.139 343.098 171.514 346.409 171.93C348.533 172.201 350.615 172.659 352.573 173.595C353.052 173.824 353.572 174.074 353.947 174.47C354.53 175.073 355.217 175.281 355.988 175.323C358.674 175.448 361.36 175.593 364.026 175.677C368.649 175.802 373.251 175.802 377.874 175.989C380.227 176.093 382.601 176.363 384.933 176.801C388.411 177.446 391.742 178.528 394.699 180.568C395.262 180.963 395.699 181.525 396.157 182.045C396.324 182.233 396.386 182.524 396.511 182.857C396.053 182.94 395.678 183.024 395.303 183.065C392.804 183.252 390.306 183.461 387.786 183.606C376.083 184.272 364.359 184.335 352.635 184.376C349.595 184.376 346.555 184.564 343.535 184.751C340.807 184.938 338.1 185.438 335.435 186.062C333.227 186.562 330.999 186.999 328.75 187.332C325.689 187.79 322.628 188.185 319.567 188.56C318.005 188.747 316.423 188.83 314.861 188.976C314.59 188.997 314.34 189.101 314.09 189.184H293.287L293.079 189.101Z" fill="#01B868"/>
<path d="M268.174 74.9851C267.82 43.5372 256.45 40.9148 253.555 40.8315C253.139 40.8315 253.014 40.8107 253.014 40.8107C255.867 39.4995 258.844 39.0416 261.822 39.2081C271.276 39.7701 279.981 47.9911 284.853 67.0971C285.103 66.3479 285.416 65.6194 285.791 64.9326C286.02 64.5372 286.29 64.2041 286.582 63.8503C286.728 63.663 286.873 63.4757 287.019 63.2884C287.082 63.226 287.123 63.1427 287.186 63.0803C287.727 62.4767 288.414 61.9564 289.081 61.4985C290.309 60.6452 291.725 60.0832 293.141 59.6045C297.056 58.2933 301.325 57.8771 305.532 57.7522C296.994 29.5927 276.503 21.5798 262.072 20.8305C253.389 20.2686 246.996 22.1209 246.996 22.1209C246.933 40.0614 246.892 58.002 246.829 75.9633C253.576 73.5074 261.031 74.6313 268.194 74.9851H268.174Z" fill="#231F20"/>
<path d="M298.66 88.534C296.827 87.8888 294.995 87.2644 293.1 86.8274C292.725 86.7441 292.329 86.6609 291.934 86.5776C291.684 86.536 291.413 86.4736 291.163 86.4319C290.601 86.3487 290.643 86.3487 291.309 86.4319C290.539 86.1405 289.352 86.3071 288.539 86.3279C288.352 86.3279 288.165 86.3279 287.977 86.2862C288.602 93.0295 288.914 100.543 288.81 108.972C288.331 152.783 278.023 165.666 272.88 165.687C267.445 165.666 267.653 157.008 267.653 156.404C267.653 156.404 267.799 134.051 267.986 106.662C265.238 108.431 262.551 110.262 259.761 111.99C255.659 114.529 251.286 116.631 246.663 118.005C246.6 136.091 246.559 154.198 246.496 172.284C255.763 172.284 265.008 172.284 274.275 172.326C274.275 172.388 307.885 172.263 309.447 91.6767C305.719 91.094 302.2 89.7828 298.66 88.534Z" fill="#231F20"/>
<path d="M348.116 82.2276C348.554 81.9362 348.533 80.854 348.949 80.5418C350.594 79.2306 352.094 77.7737 353.614 76.296C355.488 74.4645 357.446 72.737 359.59 71.2177C359.903 70.9888 360.278 70.8431 360.652 70.739C352.406 62.4764 349.803 58.3138 349.886 54.0056C349.949 49.9471 351.594 47.9075 354.384 48.5319C357.841 49.3228 363.068 54.0681 367.566 62.2891C370.002 66.8054 373.792 69.7608 377.874 70.739C384.579 72.2791 391.638 68.1791 391.888 54.2554C391.93 52.07 391.847 49.6558 391.493 46.9917C380.31 43.2871 369.044 39.9571 357.675 37.0433C357.675 37.0433 357.008 36.6895 355.946 36.4189C352.115 35.3783 341.536 35.3158 341.161 57.856C341.099 61.7063 341.599 71.7588 347.658 81.4367L348.137 82.2068L348.116 82.2276Z" fill="#231F20"/>
<path d="M332.478 57.2526C332.623 48.3655 332.769 39.4785 332.915 30.5915C326.855 29.3427 320.775 28.198 314.673 27.1782L314.236 58.5221C320.317 58.1683 326.397 57.7312 332.478 57.2734V57.2526Z" fill="#231F20"/>
</g>
<defs>
<clipPath id="clip0_100_2">
<rect width="457" height="189" fill="white" transform="translate(0.816406 0.10083)"/>
</clipPath>
</defs>
</svg>
