<svg width="87" height="87" viewBox="0 0 87 87" fill="none" xmlns="http://www.w3.org/2000/svg">
<path d="M12.992 0.0214406C13.9047 0.564811 14.8836 1.02215 15.7074 1.67419C16.522 2.31718 17.1815 3.15488 17.9185 3.92012C19.5706 2.93526 21.234 2.51189 23.0595 2.84244C24.634 3.12544 25.9005 3.91107 27.0163 5.02271C31.9976 9.98549 36.9972 14.9302 41.9785 19.8929C42.3732 20.2869 42.6767 20.4454 43.2837 20.2393C44.8673 19.7073 46.3209 20.0809 47.5439 21.2106C47.8474 21.4914 48.0551 21.8762 48.2262 22.1049C49.8121 20.5088 51.115 18.9602 52.6485 17.6923C59.7085 11.8511 70.0728 11.5115 77.555 16.7867C77.7855 16.9497 78.0296 17.1082 78.2213 17.3119C78.6914 17.8146 78.7302 18.3851 78.3217 18.9307C77.9361 19.4447 77.3907 19.5714 76.7997 19.3201C76.5168 19.2001 76.2703 18.9919 76.0147 18.8153C67.6951 13.0691 56.1283 15.2607 50.5925 23.6309C50.5309 23.7237 50.4761 23.8233 50.1977 24.1584C50.4875 24.335 50.8321 24.4618 51.058 24.6972C52.7671 26.4858 52.7626 28.9129 51.0466 30.7015C50.1042 31.6841 49.139 32.644 48.1532 33.5813C47.7516 33.964 47.5919 34.3443 47.6238 34.9126C48.0779 42.7552 54.4215 49.8281 62.2642 51.1979C72.7722 53.0363 82.3492 46.1038 83.6476 35.6212C84.2089 31.0773 83.0954 26.8798 80.4119 23.1215C80.2978 22.9607 80.1723 22.8045 80.0605 22.6415C79.5653 21.9215 79.611 21.2016 80.1791 20.7555C80.7747 20.2892 81.5665 20.4273 82.1073 21.1291C84.0172 23.6128 85.3293 26.3794 85.9203 29.4495C88.1748 41.1727 80.5762 51.9065 68.6694 53.8491C58.1158 55.572 47.4823 48.1957 45.4423 37.7404C45.3739 37.3895 45.2963 37.0385 45.2005 36.5789C44.9129 36.8416 44.6848 37.0385 44.4725 37.2491C41.4126 40.2829 38.3549 43.3213 35.2926 46.3528C33.0906 48.5331 30.6855 48.5399 28.5041 46.3777C27.4978 45.3793 26.4846 44.3876 25.4874 43.3801C24.1913 42.0715 23.8148 40.5478 24.4127 38.7909C24.4811 38.5871 24.5085 38.243 24.3899 38.123C22.2814 35.9925 20.1479 33.8893 17.9641 31.7226C16.3486 33.7557 15.3035 35.9699 14.9178 38.4219C13.9093 44.854 16.0565 50.0681 21.2591 54.046C21.7954 54.4558 22.2609 54.5351 22.9523 54.329C26.156 53.3691 29.1818 53.8174 32.0136 55.6241C32.454 55.9048 33.0427 56.0927 33.5652 56.0972C39.5141 56.1289 45.4629 56.0972 51.4117 56.1244C55.5533 56.1425 58.6863 58.8186 59.3754 62.8509C59.8614 65.7036 58.1455 67.7616 55.2384 67.7684C49.4037 67.782 43.5689 67.7729 37.7319 67.7729C37.3919 67.7729 37.0519 67.7729 36.648 67.7729V72.3599C36.9972 72.3599 37.3303 72.3599 37.6612 72.3599C44.9768 72.3599 52.2925 72.3418 59.6081 72.3667C64.5438 72.3848 68.3157 75.5907 69.1304 80.3836C69.7533 84.0604 67.4372 86.7841 63.6721 86.7841C44.4018 86.7841 25.1315 86.7841 5.86113 86.7841C3.03847 86.7841 1.38411 85.1653 1.39552 82.3828C1.40237 81.1444 1.36586 79.8878 1.54841 78.6675C2.00478 75.5997 4.41443 73.1523 7.49266 72.541C8.12246 72.4165 8.54232 72.1629 8.8846 71.6082C10.1077 69.6385 11.3832 67.7027 12.6862 65.6832C12.4329 65.4862 12.1956 65.3006 11.956 65.1195C9.38205 63.1588 7.1983 60.8382 5.3614 58.187C4.99174 57.6549 4.82973 57.1229 5.22677 56.5433C5.77442 55.7441 6.72139 55.8414 7.4379 56.6746C8.96675 58.4519 10.5184 60.2133 12.1134 61.9339C12.6611 62.5249 13.3685 62.9731 14.0302 63.5075C15.9835 61.0193 17.1039 58.0421 19.5729 56.0497C11.13 49.8983 9.65815 37.8853 16.0268 29.9272C13.8271 27.7605 11.6297 25.5961 9.36379 23.3637C8.9348 23.9048 8.43279 24.4754 7.99924 25.0934C2.29686 33.2485 1.16049 41.99 4.59241 51.3156C4.67913 51.5533 4.78409 51.7865 4.86396 52.0265C5.11952 52.7917 4.86396 53.4574 4.21591 53.7313C3.51994 54.0256 2.76692 53.754 2.50451 52.9457C1.80398 50.7767 0.952842 48.6169 0.585462 46.3845C-0.916005 37.2378 1.33848 29.0442 7.28273 21.8672C7.46072 21.6521 7.63642 21.2242 7.5383 21.0318C6.31294 18.6024 6.45213 16.2478 7.93078 13.8004C7.13669 13.0578 6.31066 12.3288 5.53482 11.5499C3.45833 9.46476 3.45833 6.70716 5.51657 4.62198C6.2924 3.83635 7.10931 3.08695 7.86461 2.27869C8.82755 1.24629 9.88862 0.39048 11.2828 0.0146484C11.8533 0.0146484 12.4215 0.0146484 12.992 0.0146484V0.0214406ZM34.7883 84.2484C44.3516 84.2484 53.9126 84.2121 63.4759 84.2778C65.4315 84.2914 67.0767 83.2431 66.5633 80.5602C65.9061 77.1279 63.1313 74.9092 59.421 74.9069C45.561 74.9001 31.701 74.9047 17.8409 74.9047C14.8813 74.9047 11.9218 74.882 8.96218 74.9182C6.532 74.9477 4.51255 76.6027 4.0904 78.9822C3.90557 80.0259 3.96262 81.1172 3.95121 82.1858C3.93296 83.8069 4.38705 84.2461 6.0163 84.2461C15.607 84.2461 25.1976 84.2461 34.7883 84.2461V84.2484ZM40.5591 22.0777C40.4656 21.9781 40.3743 21.8717 40.2739 21.7721C35.2242 16.7618 30.1767 11.7469 25.1201 6.74338C23.096 4.74197 20.5974 4.75329 18.5665 6.7615C16.0063 9.2927 13.4529 11.8307 10.8995 14.3664C8.70433 16.549 8.69749 18.9285 10.8858 21.1019C15.8146 25.9945 20.7434 30.8849 25.6746 35.7752C25.8685 35.9676 26.0807 36.1442 26.245 36.2914C31.0324 31.5369 35.7741 26.8277 40.5591 22.0777ZM49.9011 27.6994C49.6478 27.2307 49.5086 26.7802 49.2165 26.4745C48.1235 25.3266 46.9963 24.2105 45.8462 23.1169C45.0156 22.3268 44.1006 22.3291 43.2768 23.1441C37.9396 28.4193 32.6114 33.7059 27.2947 39.0015C26.455 39.8392 26.4801 40.7538 27.3221 41.6096C28.3923 42.7009 29.4761 43.7809 30.5783 44.8404C31.434 45.6645 32.349 45.6645 33.207 44.8155C38.5237 39.5584 43.8313 34.2923 49.123 29.0102C49.4584 28.6752 49.625 28.1748 49.9011 27.6994ZM34.017 72.3191C34.017 70.9901 34.0262 69.7019 34.0148 68.4114C33.9965 66.6341 34.1357 64.8319 33.8984 63.0841C33.4375 59.6971 30.9457 57.2112 27.6301 56.5229C24.4743 55.8686 21.234 57.2361 19.3789 60.0684C16.8529 63.9263 14.3634 67.8069 11.8601 71.6784C11.7438 71.8595 11.6548 72.0587 11.5156 72.3214H34.017V72.3191ZM36.5659 65.1896C36.9264 65.21 37.1774 65.2349 37.4261 65.2349C43.3156 65.2349 49.2028 65.2395 55.0923 65.2349C56.5664 65.2349 57.0867 64.5987 56.8334 63.1452C56.3702 60.485 54.2275 58.6805 51.4368 58.6692C46.1178 58.6511 40.7987 58.6624 35.4774 58.6647C35.3497 58.6647 35.2219 58.6851 34.9868 58.7054C36.2145 60.7295 36.6937 62.8418 36.5682 65.1896H36.5659ZM16.0519 5.55703C15.2213 4.74197 14.425 3.90201 13.5624 3.1345C12.6656 2.33756 11.5087 2.34435 10.6302 3.16846C9.43225 4.29142 8.26622 5.45061 7.13669 6.63924C6.36086 7.45656 6.31066 8.60895 7.04542 9.41495C7.86004 10.3093 8.78192 11.1085 9.62849 11.9212C11.7369 9.83154 13.8477 7.74183 16.0542 5.55929L16.0519 5.55703Z" fill="black"/>
<path d="M76.5509 27.1538C75.8868 28.6163 76.779 29.5854 78.0683 30.6608C79.9919 32.266 79.7112 35.4288 77.6416 36.8643C76.6193 37.5729 76.2588 38.2929 76.4824 39.5517C76.9821 42.3749 74.5177 44.768 71.6814 44.2745C70.529 44.0752 69.7646 44.3356 69.0823 45.3295C67.4417 47.7203 63.9162 47.7203 62.2664 45.3363C61.6092 44.3877 60.8927 44.0639 59.7563 44.2586C56.7603 44.7726 54.3346 42.3591 54.8823 39.3887C55.0808 38.3155 54.8047 37.625 53.9102 37.0205C51.3728 35.2998 51.3705 31.8245 53.9011 30.0948C54.7476 29.5174 55.1013 28.8744 54.896 27.8171C54.2936 24.7312 56.7694 22.3178 59.9161 22.8725C60.8562 23.0377 61.5476 22.8 62.1112 21.9872C63.9572 19.3224 67.3869 19.3202 69.2306 21.9872C69.8467 22.8793 70.6043 23.0332 71.5946 22.8408C74.1595 22.3404 76.5372 24.3033 76.5509 27.1538ZM57.5726 38.7185C57.5361 38.9426 57.479 39.2732 57.422 39.606C57.1596 41.1388 58.0176 41.9946 59.5669 41.7274C61.5362 41.3855 63.0764 42.0059 64.1991 43.6677C65.0274 44.8925 66.3258 44.8767 67.1678 43.6383C68.2973 41.9765 69.849 41.3833 71.8137 41.7319C73.2969 41.9968 74.2234 41.098 73.9267 39.6536C73.5205 37.6838 74.1731 36.1737 75.8252 35.0508C77.1076 34.1791 77.0894 32.9339 75.7956 32.0441C74.18 30.9347 73.5297 29.4405 73.9176 27.507C74.2188 26.0059 73.2924 25.1071 71.7795 25.381C69.8559 25.7297 68.3133 25.1456 67.1952 23.5177C66.2848 22.191 65.0503 22.2046 64.1261 23.5449C63.0468 25.1093 61.5522 25.7025 59.6947 25.4105C57.9537 25.1365 57.1276 25.9289 57.4471 27.6292C57.7916 29.4608 57.155 30.9008 55.6558 31.9717C54.1932 33.0154 54.1954 34.127 55.6901 35.164C56.8972 35.9994 57.4768 37.1676 57.5703 38.7208L57.5726 38.7185Z" fill="black"/>
<path d="M30.0779 64.5286C30.0779 66.9625 28.0813 68.9548 25.6374 68.9548C23.2027 68.9548 21.1923 66.9579 21.1901 64.5331C21.1878 62.0902 23.1662 60.1318 25.6351 60.1318C28.1132 60.1318 30.0802 62.0789 30.0802 64.5286H30.0779ZM27.5154 64.4992C27.4994 63.4577 26.646 62.654 25.5827 62.6789C24.5649 62.7038 23.7572 63.5166 23.7549 64.5218C23.7503 65.5497 24.622 66.4168 25.6488 66.4078C26.6825 66.3987 27.5314 65.5316 27.5154 64.4992Z" fill="black"/>
</svg>
