<svg width="84" height="83" viewBox="0 0 84 83" fill="none" xmlns="http://www.w3.org/2000/svg">
<g clip-path="url(#clip0_92_65)">
<path d="M0.848633 59.9569C1.38717 58.8616 1.86299 57.7278 2.47724 56.6753C11.8725 40.5522 21.2873 24.4397 30.6977 8.32718C32.4604 5.30662 35.2634 4.55362 38.3216 6.29707C47.8034 11.7028 57.2831 17.1108 66.7584 22.5294C69.7885 24.2621 70.5347 27.0752 68.7849 30.0807C67.723 31.9055 66.661 33.7324 65.5818 35.5464C65.119 36.323 64.3706 36.6845 63.6244 36.5262C62.8026 36.3529 62.2316 35.848 62.1559 35.0266C62.1126 34.5602 62.2705 34.0169 62.5019 33.5997C63.5163 31.7771 64.5912 29.9909 65.6402 28.1897C66.3085 27.0409 66.1549 26.3863 65.0195 25.7382C55.449 20.2725 45.8742 14.809 36.2994 9.354C35.2526 8.75716 34.5691 8.95183 33.9549 10.0065C24.2611 26.6045 14.576 43.2069 4.89094 59.8114C4.2767 60.8639 4.46054 61.5463 5.50302 62.1432C15.0735 67.611 24.644 73.0745 34.2166 78.538C35.3023 79.1563 35.9879 78.968 36.6281 77.892C37.1191 77.0641 37.5863 76.2234 38.088 75.4019C38.6936 74.4072 39.7296 74.0885 40.6358 74.5869C41.568 75.0982 41.8384 76.1935 41.2566 77.2288C40.7202 78.1851 40.1492 79.1199 39.5977 80.0675C38.7888 81.458 37.4911 82.1447 35.9858 82.5383H34.3658C33.4942 82.1383 32.5837 81.8024 31.7531 81.3297C22.7407 76.202 13.7542 71.0273 4.7244 65.9295C2.93359 64.9156 1.41745 63.7754 0.848633 61.7175C0.848633 61.1313 0.848633 60.543 0.848633 59.9569Z" fill="black"/>
<path d="M79.8305 40.8473C77.5898 41.3564 75.4248 41.8548 73.2555 42.3426C69.423 43.2047 65.5559 43.9406 61.7644 44.9524C58.5916 45.7974 55.6523 47.2242 53.3273 49.6287C51.026 52.0096 50.2691 54.7714 51.3656 57.9459C51.4175 58.0935 51.4954 58.2326 51.5213 58.2946C53.3705 57.133 55.1549 55.8944 57.0473 54.8484C60.1942 53.1113 63.6007 52.0032 67.0936 51.1604C68.294 50.8716 69.2673 51.4085 69.5095 52.4268C69.7604 53.4878 69.1916 54.3692 67.9912 54.6751C64.0851 55.672 60.3089 56.9769 56.8786 59.1289C52.8817 61.6361 49.7716 64.8727 48.5842 69.5383C48.2403 70.8881 48.2014 72.3278 48.1408 73.7311C48.0868 74.9954 47.479 75.8661 46.3976 75.9238C45.3357 75.9816 44.5008 75.1708 44.4424 73.9151C44.2283 69.4698 45.5995 65.5059 48.2879 61.9805C48.7032 61.4371 48.7616 61.0542 48.4653 60.436C45.924 55.1521 47.2 49.8576 51.902 45.9429C55.0078 43.3587 58.663 41.8677 62.5344 40.9221C66.5335 39.9467 70.5909 39.2086 74.6137 38.323C75.9504 38.0278 77.2892 37.6812 78.5674 37.2021C79.2898 36.9304 79.9364 36.3956 80.5355 35.8865C81.1455 35.3709 81.777 35.127 82.534 35.3837C83.2953 35.6426 83.7755 36.2073 83.7473 37.0074C83.4532 45.1214 81.8505 52.8589 76.6295 59.4177C72.9614 64.0256 68.0323 66.3466 62.1148 66.507C60.3997 66.5541 58.6716 66.3573 56.9565 66.2011C55.7453 66.092 55.0294 65.2 55.1851 64.1582C55.3452 63.0736 56.2168 62.4682 57.4302 62.6329C60.0688 62.9902 62.7009 63.0693 65.3136 62.4703C68.6595 61.7045 71.4387 59.991 73.6037 57.3619C77.566 52.5487 79.0151 46.8071 79.8326 40.8473H79.8305Z" fill="black"/>
<path d="M66.7692 12.4643C66.7021 14.3169 65.6683 15.8271 64.5436 17.2583C64.0267 17.9171 62.9323 17.8765 62.2467 17.3759C61.5546 16.8689 61.2951 15.9576 61.6887 15.1576C62.0175 14.488 62.4349 13.8612 62.7939 13.2045C63.2741 12.3253 63.101 11.6086 62.2164 11.0995C58.3255 8.86188 54.426 6.63711 50.5178 4.42517C49.6807 3.95026 48.9757 4.1706 48.4544 5.00275C48.0997 5.56964 47.7904 6.16434 47.4336 6.72909C46.815 7.70885 45.7725 7.99978 44.8663 7.4714C43.9687 6.94729 43.7157 5.89694 44.2715 4.89152C44.6457 4.21339 45.0307 3.53954 45.4568 2.88922C46.9059 0.673003 49.7283 -0.137756 52.0598 1.14577C56.206 3.42616 60.3067 5.78784 64.3944 8.16664C65.9819 9.09077 66.6718 10.5968 66.767 12.4622L66.7692 12.4643Z" fill="black"/>
<path d="M42.7057 34.8554C42.0244 36.0213 41.4058 37.0823 40.7829 38.1412C40.0584 39.3734 39.0657 39.7585 38.0664 39.198C37.0694 38.6397 36.8855 37.5636 37.5841 36.355C38.2113 35.2704 38.8429 34.1901 39.5263 33.0136C38.3043 32.314 37.1191 31.6487 35.9469 30.9599C35.1164 30.4722 34.7595 29.7406 34.9325 28.964C35.2115 27.7062 36.5049 27.1393 37.7161 27.7875C38.9229 28.4335 40.0973 29.1352 41.3734 29.8604C42.0439 28.7159 42.6624 27.5693 43.3783 26.4868C43.6703 26.0462 44.1158 25.6098 44.596 25.4065C45.2816 25.1156 45.991 25.3252 46.4928 25.9199C47.0313 26.5574 47.107 27.2762 46.6961 28.0057C46.0148 29.2143 45.3076 30.4101 44.5722 31.683C45.7509 32.3611 46.9275 32.9943 48.0522 33.7088C48.4609 33.9676 48.8676 34.3634 49.06 34.7912C49.3801 35.5036 49.1898 36.2181 48.5777 36.7507C47.9419 37.3048 47.213 37.3733 46.4755 36.9732C45.459 36.4213 44.4641 35.833 43.4583 35.2619C43.2269 35.1314 42.9912 35.0073 42.71 34.8533L42.7057 34.8554Z" fill="black"/>
<path d="M18.2982 57.7899C18.2809 56.3716 19.7322 55.5202 21.0537 56.2261C22.4984 57.0005 23.9086 57.8412 25.3317 58.6541C27.4318 59.8542 29.5384 61.0458 31.6277 62.2651C32.3912 62.7101 32.7286 63.493 32.5404 64.2332C32.3458 65.0012 31.857 65.5467 31.0524 65.6151C30.6025 65.6536 30.0683 65.5424 29.6747 65.3199C26.2293 63.3861 22.8077 61.4094 19.3775 59.4499C18.7265 59.0777 18.3026 58.5686 18.3004 57.7899H18.2982Z" fill="black"/>
</g>
<defs>
<clipPath id="clip0_92_65">
<rect width="82.8987" height="82" fill="white" transform="translate(0.848633 0.536133)"/>
</clipPath>
</defs>
</svg>
