<svg width="98" height="86" viewBox="0 0 98 86" fill="none" xmlns="http://www.w3.org/2000/svg">
<g clip-path="url(#clip0_92_74)">
<path d="M97.852 34.5931C96.8211 35.7241 95.8285 36.8953 94.7389 37.9708C94.249 38.4544 94.0959 38.9002 94.2363 39.54C94.4327 40.4266 94.5807 41.3258 94.7262 42.2224C94.9125 43.3836 94.8869 44.5271 93.8408 45.3104C92.7665 46.1139 91.6183 45.8444 90.5109 45.3104C89.3754 44.7639 88.2475 43.7765 87.1121 43.774C86.0149 43.769 84.9074 44.7614 83.8153 45.3356C82.6849 45.9301 81.5979 45.8495 80.6002 45.0938C79.6485 44.3735 79.3882 43.3962 79.6383 42.2376C79.8526 41.2578 80.0261 40.2654 80.118 39.2679C80.1512 38.9052 79.9904 38.4292 79.7454 38.1572C79.0488 37.3864 78.2578 36.6988 77.5153 35.9659C76.6579 35.117 76.1298 34.1146 76.538 32.9106C76.9233 31.7696 77.921 31.3414 79.0488 31.1701C80.1154 31.0064 81.1948 30.8956 82.2461 30.6664C82.6058 30.5883 83.0141 30.281 83.1978 29.9637C83.7796 28.9587 84.2415 27.8882 84.7977 26.8656C85.3131 25.916 86.0123 25.1453 87.2218 25.1654C88.3853 25.1831 89.0615 25.9387 89.5616 26.853C90.1205 27.8731 90.5772 28.9461 91.159 29.9511C91.3427 30.2659 91.751 30.5656 92.1107 30.6513C93.0038 30.8629 93.9224 30.9838 94.8385 31.0719C96.3031 31.2155 97.3467 31.8729 97.852 33.2758V34.5956V34.5931ZM82.4655 42.8269C83.4351 42.3307 84.2363 42.0083 84.9406 41.5449C86.4793 40.5324 87.949 40.5878 89.4774 41.56C90.197 42.0184 90.9957 42.3534 91.9168 42.8269C91.7101 41.6431 91.5902 40.6784 91.3657 39.7389C91.0135 38.268 91.4065 37.0943 92.5802 36.1271C93.3432 35.4974 94.05 34.8047 94.7849 34.1398C93.5448 33.7594 92.4833 33.5806 91.4167 33.4622C90.1715 33.3212 89.2886 32.7368 88.7553 31.6034C88.2833 30.5984 87.7627 29.6186 87.1861 28.47C86.6323 29.5632 86.1246 30.4649 85.7112 31.4069C85.1473 32.6915 84.2032 33.3564 82.7921 33.4849C81.7663 33.5781 80.7508 33.7796 79.5337 33.9609C80.4701 34.8677 81.2433 35.6435 82.0496 36.389C82.9656 37.2353 83.3075 38.2176 83.0345 39.4493C82.8049 40.4845 82.6773 41.5424 82.4655 42.8269Z" fill="black"/>
<path d="M77.5944 68.9489C79.2325 72.0319 78.5027 75.0393 75.6449 77.0971C76.4461 78.4194 76.8314 79.8274 76.4767 81.3916C75.9128 83.8826 73.7567 85.7087 71.1719 85.7263C66.5891 85.7566 62.0063 85.7389 57.4236 85.7314C56.357 85.7314 55.7497 85.2075 55.7446 84.3536C55.7395 83.5073 56.3621 82.9406 57.4032 82.9179C58.7045 82.8902 60.0033 82.9104 61.5062 82.9104C60.4958 80.8324 60.6769 78.9207 61.866 77.1198C57.768 74.465 58.3268 69.3645 61.866 67.2613C60.5391 65.1683 60.4473 63.0324 61.9043 60.831C60.6208 60.0275 59.6945 58.9494 59.2633 57.5087C58.8423 56.1032 58.9239 54.7255 59.5618 53.3175H55.6042C55.6042 53.9296 55.6144 54.5416 55.6042 55.1512C55.5073 60.6572 51.6415 64.7678 46.1351 65.2237C44.9179 65.3244 44.2264 64.9013 44.1346 64.0021C44.0376 63.0701 44.5939 62.5487 45.8136 62.4253C50.0876 61.9946 52.7566 59.1358 52.7285 54.8942C52.7158 52.9372 52.8536 51.0481 53.5221 49.1666C53.9788 47.882 54.1013 46.474 54.3131 45.1139C54.4764 44.0636 55.076 43.4112 55.9232 43.5044C56.7703 43.5951 57.2628 44.2475 57.1709 45.2902C57.0944 46.1642 56.9566 47.0357 56.7984 47.8997C56.6453 48.7258 56.4284 49.5419 56.2217 50.4461C56.63 50.4461 56.9745 50.4461 57.3215 50.4461C62.3508 50.4461 67.3827 50.5645 72.4069 50.4134C77.3443 50.2648 80.0669 55.4156 77.6377 58.962C77.6046 59.0099 77.6071 59.0804 77.5944 59.1434C81.4218 62.5135 81.4244 65.6216 77.6046 68.9514L77.5944 68.9489ZM68.6457 58.559C70.0772 58.559 71.5061 58.5792 72.9376 58.554C74.489 58.5263 75.6398 57.4281 75.6806 55.9924C75.7214 54.5315 74.5655 53.3175 72.9708 53.2923C70.141 53.2495 67.3112 53.247 64.484 53.2923C62.8943 53.3175 61.7333 54.5542 61.7869 56.0075C61.8405 57.4457 62.9913 58.5263 64.5478 58.554C65.9155 58.5792 67.2806 58.559 68.6483 58.559H68.6457ZM70.6054 66.677C72.0037 66.677 73.402 66.6971 74.8003 66.672C76.4129 66.6417 77.5816 65.5284 77.5893 64.06C77.5969 62.5966 76.441 61.4279 74.8284 61.4027C72.0318 61.3624 69.2326 61.3599 66.436 61.4027C64.8285 61.4279 63.6675 62.6168 63.6904 64.0751C63.7108 65.536 64.8897 66.6417 66.5023 66.6694C67.8675 66.6946 69.2352 66.6745 70.6028 66.6745L70.6054 66.677ZM68.6279 74.7975C70.0262 74.7975 71.4245 74.8176 72.8228 74.7924C74.5069 74.7597 75.6883 73.6464 75.6806 72.1502C75.673 70.6818 74.5196 69.5433 72.8917 69.5207C70.1282 69.4829 67.3622 69.4829 64.5962 69.5207C62.9632 69.5408 61.8073 70.6617 61.7818 72.1301C61.7563 73.6212 62.9479 74.7597 64.6218 74.7924C65.9563 74.8201 67.2908 74.7975 68.6253 74.7975H68.6279ZM68.7172 82.8978C69.5439 82.8978 70.3706 82.928 71.1948 82.8902C72.5982 82.8273 73.6597 81.8046 73.7643 80.4621C73.8664 79.1474 72.9325 77.83 71.5546 77.7293C69.6945 77.5933 67.8088 77.5958 65.9461 77.7217C64.5631 77.8149 63.6088 79.1196 63.6981 80.4269C63.7899 81.7719 64.8489 82.8197 66.2395 82.8877C67.0637 82.928 67.8904 82.8953 68.7172 82.8978Z" fill="black"/>
<path d="M20.2868 82.8651H30.3684V50.4311H20.2868C20.2868 50.7661 20.2868 51.0961 20.2868 51.4286C20.2868 55.0732 20.2868 58.7178 20.2868 62.3625C20.2868 62.6446 20.3123 62.9367 20.2511 63.2063C20.0725 63.972 19.5928 64.4354 18.766 64.3825C17.9521 64.3296 17.4825 63.8485 17.4417 63.0476C17.3983 62.2013 17.4264 61.3525 17.4264 60.5036C17.4264 56.796 17.4239 53.0884 17.4264 49.3808C17.4264 48.0156 17.873 47.5623 19.2406 47.5597C23.2824 47.5522 27.3268 47.5522 31.3686 47.5597C32.8384 47.5623 33.2951 48.0307 33.2977 49.4891C33.2977 50.1692 33.2977 50.8492 33.2977 51.8215C36.6352 49.071 39.886 46.6077 42.8689 43.8647C45.1782 41.7414 45.8084 38.8071 45.7701 35.7443C45.7625 35.0869 45.788 34.4244 45.885 33.7746C46.2575 31.276 48.0156 29.7043 50.6004 29.5053C52.8561 29.3315 54.9688 30.7521 55.6374 33.0316C56.1503 34.7771 56.5305 36.5603 56.9183 38.3361C57.1173 39.2504 56.6172 39.9657 55.7981 40.1118C54.9535 40.2629 54.3207 39.7843 54.1064 38.8549C53.7466 37.2958 53.4123 35.7291 52.999 34.1851C52.6366 32.8301 51.6874 32.1701 50.529 32.3465C49.3195 32.5303 48.7096 33.3791 48.5923 34.772C48.4264 36.7644 48.3524 38.792 47.9033 40.7264C47.3037 43.3005 45.7166 45.4012 43.6931 47.0988C41.611 48.8468 39.3936 50.4387 37.2782 52.1489C36.0509 53.1438 34.8874 54.2193 33.7391 55.3024C33.4967 55.5291 33.3155 55.9472 33.3155 56.2772C33.2951 63.9745 33.3028 71.6743 33.3079 79.3716C33.3079 79.4321 33.3334 79.4925 33.3691 79.6361C34.0147 79.7469 34.6909 79.8603 35.3696 79.9786C37.1838 80.2935 38.8475 80.966 40.3275 82.0516C41.1517 82.6586 42.0549 82.9281 43.0858 82.9155C45.4742 82.8878 47.8599 82.9029 50.2483 82.9105C50.5953 82.9105 50.9525 82.9231 51.2868 83.0087C51.9962 83.1901 52.3687 83.7089 52.3253 84.4016C52.282 85.132 51.8533 85.6962 51.0699 85.7013C47.9518 85.7214 44.8286 85.7743 41.7156 85.6207C40.7664 85.5753 39.7508 85.0514 38.9394 84.4948C37.2629 83.3487 35.4589 82.709 33.2951 82.5503C33.2951 83.0843 33.3053 83.5981 33.2951 84.1144C33.2696 85.1799 32.7848 85.7164 31.7386 85.7214C27.5054 85.739 23.2722 85.7416 19.0365 85.7214C17.9418 85.7164 17.429 85.1547 17.4264 84.0565C17.4188 79.1852 17.4188 74.3165 17.4264 69.4452C17.4264 68.3949 17.9495 67.7879 18.8094 67.7702C19.7127 67.7526 20.2792 68.3773 20.2817 69.4729C20.2919 73.5583 20.2868 77.6438 20.2868 81.7267C20.2868 82.0692 20.2868 82.4118 20.2868 82.8651Z" fill="black"/>
<path d="M41.3227 18.1759C41.4681 17.3447 41.6416 16.2289 41.8713 15.1231C42.0167 14.4204 41.9172 13.8889 41.315 13.3978C40.5572 12.7807 39.8733 12.0704 39.1895 11.3702C38.3985 10.5591 37.9162 9.5995 38.299 8.46102C38.6817 7.32254 39.6564 6.85657 40.7817 6.67018C41.8151 6.49891 42.8537 6.33771 43.8947 6.21932C44.4535 6.15636 44.7929 5.94478 45.0277 5.40828C45.4691 4.4033 45.982 3.42602 46.5 2.45378C47.0128 1.48658 47.7401 0.781329 48.9495 0.803998C50.1386 0.826667 50.8837 1.50925 51.4017 2.48149C51.815 3.25727 52.2743 4.02549 52.5652 4.84912C52.9327 5.88937 53.6242 6.26718 54.6806 6.32007C55.566 6.36541 56.4463 6.53921 57.3215 6.69285C59.7303 7.11852 60.5315 9.29473 58.9137 11.1158C58.1176 12.0099 57.1735 12.7731 56.3646 13.6572C56.1197 13.9242 55.9717 14.4128 56.01 14.7755C56.1197 15.8334 56.3417 16.8812 56.5254 17.9315C56.7168 19.0196 56.3953 19.934 55.5047 20.5964C54.5989 21.2689 53.5884 21.4376 52.5448 20.9289C51.5191 20.4301 50.5341 19.8483 49.493 19.3823C49.1792 19.2413 48.6918 19.2463 48.3754 19.3874C47.3369 19.8534 46.3647 20.473 45.3211 20.9263C43.1139 21.886 41.2742 20.7274 41.3227 18.1708V18.1759ZM44.2188 18.3295C45.2292 17.8081 46.0789 17.4454 46.8444 16.9593C48.2657 16.0576 49.6232 16.0777 51.0419 16.9543C51.8227 17.4379 52.675 17.8106 53.6675 18.3219C53.4736 17.191 53.3869 16.2818 53.1547 15.4103C52.7234 13.7907 53.1853 12.5364 54.479 11.4835C55.1883 10.9042 55.8033 10.2141 56.5815 9.45341C55.4256 9.27206 54.5249 9.04033 53.6165 9.00507C51.8967 8.93958 50.8684 8.08069 50.2432 6.55936C49.8962 5.71305 49.4165 4.92216 48.9317 3.97259C48.3729 5.08085 47.8702 5.99012 47.4517 6.93465C46.898 8.18144 45.9718 8.83379 44.6041 8.96981C43.5554 9.07307 42.5168 9.26954 41.44 9.42822C42.3153 10.3325 43.091 11.1611 43.8973 11.9571C44.6985 12.7479 45.0481 13.6446 44.8159 14.773C44.5913 15.8737 44.4408 16.9895 44.2213 18.327L44.2188 18.3295Z" fill="black"/>
<path d="M62.3865 26.2032C62.6213 24.8456 62.805 23.6668 63.0372 22.4981C63.152 21.9238 63.0704 21.4981 62.5932 21.085C61.7818 20.3823 61.0035 19.6317 60.2737 18.8484C59.5185 18.0348 58.9775 17.0853 59.3756 15.9392C59.7762 14.7907 60.7841 14.3902 61.9017 14.2114C62.9989 14.035 64.1089 13.9192 65.1959 13.6925C65.5327 13.622 65.918 13.3323 66.089 13.0326C66.6223 12.1082 67.056 11.1259 67.5408 10.1738C68.0716 9.13103 68.9009 8.53912 70.1155 8.5492C71.2892 8.55927 72.0955 9.14614 72.6135 10.1461C73.1188 11.1234 73.5729 12.1284 74.1139 13.0855C74.267 13.3575 74.6319 13.6169 74.9406 13.6774C76.0608 13.9041 77.2014 14.0225 78.3292 14.2189C80.9549 14.6799 81.7076 16.7603 79.947 18.7753C79.2019 19.6292 78.2884 20.3395 77.5357 21.1858C77.2728 21.4805 77.1172 22.0019 77.1555 22.3973C77.255 23.4577 77.4821 24.503 77.6632 25.5558C77.8521 26.654 77.4897 27.5457 76.5788 28.1879C75.6525 28.8403 74.6472 28.9612 73.6112 28.4373C72.6212 27.9361 71.6567 27.3819 70.6462 26.9311C70.3324 26.79 69.845 26.7875 69.5311 26.9286C68.5181 27.3794 67.5664 27.9587 66.561 28.4272C65.1066 29.1073 63.5985 28.868 62.953 27.8101C62.6391 27.2963 62.5422 26.654 62.3891 26.2032H62.3865ZM77.6786 16.9694C76.4818 16.7956 75.4841 16.5966 74.4737 16.5135C73.0601 16.3951 72.1211 15.7201 71.552 14.4481C71.1208 13.4834 70.6156 12.5515 70.0823 11.481C69.5286 12.5868 69.0208 13.5263 68.5819 14.496C68.0231 15.7352 67.0943 16.38 65.7266 16.5085C64.6804 16.6067 63.647 16.8158 62.6008 16.9744C63.3714 17.783 64.017 18.5663 64.7749 19.2237C65.9103 20.2085 66.1961 21.3772 65.8899 22.7852C65.6807 23.7474 65.548 24.7247 65.3541 25.8631C66.4768 25.2863 67.449 24.833 68.3778 24.3015C69.5388 23.6391 70.6488 23.6567 71.8046 24.3015C72.7335 24.8204 73.6954 25.2813 74.813 25.8556C74.5987 24.6214 74.438 23.5761 74.2313 22.5359C73.9863 21.2966 74.267 20.2614 75.2366 19.3874C76.048 18.657 76.7906 17.8535 77.6786 16.9644V16.9694Z" fill="black"/>
<path d="M3.09637 42.6027C3.23671 41.7967 3.42043 40.6506 3.64497 39.5147C3.7649 38.9152 3.69856 38.4467 3.17802 38.016C2.47376 37.4342 1.83585 36.7692 1.18518 36.1244C0.304863 35.2504 -0.200364 34.2278 0.195142 32.9785C0.572786 31.777 1.55262 31.3111 2.72638 31.1423C3.66794 31.0063 4.60694 30.8325 5.55616 30.7418C6.19407 30.6814 6.56916 30.427 6.82433 29.8275C7.23259 28.878 7.74037 27.9687 8.20987 27.0443C8.7202 26.0418 9.50611 25.3844 10.6748 25.4096C11.8511 25.4348 12.7084 26.0343 13.2239 27.0947C13.6908 28.0568 14.1348 29.0316 14.6732 29.9535C14.8569 30.2683 15.2703 30.5706 15.6275 30.6486C16.7426 30.8904 17.8857 31.0038 19.011 31.1977C20.1184 31.3917 20.963 31.9559 21.3279 33.0515C21.6851 34.1245 21.3126 35.0262 20.5446 35.7919C19.7382 36.5929 18.8783 37.346 18.1154 38.1873C17.8704 38.4568 17.7199 38.9454 17.7582 39.3107C17.873 40.4013 18.1179 41.4768 18.2812 42.5624C18.5976 44.6857 16.4721 46.3254 14.4563 45.5169C14.0761 45.3632 13.6755 45.2071 13.3566 44.9602C11.5525 43.5573 9.78424 43.5598 7.99043 44.9779C7.67658 45.2272 7.27087 45.3783 6.89067 45.532C4.70391 46.4161 3.04789 45.2877 3.09637 42.6102V42.6027ZM10.6952 28.4523C10.1466 29.5454 9.6439 30.4572 9.22798 31.4043C8.66407 32.6863 7.71996 33.3563 6.3089 33.4822C5.28313 33.5754 4.26502 33.7744 3.05299 33.9533C3.95372 34.8247 4.69115 35.5904 5.48726 36.2957C6.45434 37.1546 6.79626 38.1797 6.55385 39.4315C6.34717 40.5045 6.17876 41.5851 5.96187 42.8394C7.00039 42.3055 7.92409 41.8924 8.78144 41.3735C10.0904 40.5801 11.3382 40.6078 12.6395 41.3811C13.4765 41.8773 14.367 42.2828 15.3953 42.8117C15.2728 42.0057 15.2575 41.3408 15.0636 40.7312C14.39 38.5903 14.8518 36.8599 16.7298 35.5124C17.2886 35.1119 17.7326 34.5552 18.3629 33.9432C17.0258 33.7543 15.9618 33.583 14.8901 33.4571C13.6857 33.3135 12.8156 32.7518 12.2925 31.6536C11.8077 30.6361 11.2846 29.6361 10.6926 28.4548L10.6952 28.4523Z" fill="black"/>
<path d="M32.3766 28.7772C31.9198 28.5782 30.9706 28.3314 30.2204 27.8075C28.6027 26.674 27.0998 26.5607 25.5152 27.8125C25.1274 28.1198 24.6349 28.3163 24.1705 28.5152C22.1955 29.354 20.0674 27.8679 20.269 25.7572C20.3736 24.6666 20.588 23.5835 20.8074 22.508C20.9248 21.9337 20.8533 21.5081 20.3736 21.095C19.6056 20.4376 18.8937 19.7147 18.1843 18.9969C17.378 18.1758 16.7809 17.2438 17.179 16.0424C17.5719 14.856 18.5696 14.3926 19.7281 14.2037C20.7615 14.0349 21.7974 13.8586 22.8411 13.7528C23.428 13.6949 23.7265 13.4229 23.9536 12.9141C24.3644 11.9972 24.8084 11.0905 25.3009 10.214C25.8571 9.21906 26.592 8.38787 27.8653 8.37276C29.159 8.35764 29.8658 9.21654 30.4118 10.214C30.9094 11.1232 31.3023 12.0904 31.828 12.9821C32.0143 13.2994 32.4251 13.6042 32.7874 13.6823C33.8719 13.9191 34.9869 14.0148 36.079 14.2188C37.1967 14.4278 38.1204 14.9392 38.4929 16.0953C38.8552 17.2237 38.3577 18.1279 37.61 18.9087C36.8675 19.6845 36.0943 20.4326 35.288 21.1454C34.844 21.5383 34.793 21.9363 34.9027 22.4803C35.1247 23.586 35.3544 24.7019 35.4284 25.8252C35.5457 27.606 34.4664 28.7797 32.3791 28.7747L32.3766 28.7772ZM27.8551 11.5036C27.2886 12.6244 26.7502 13.6168 26.2781 14.6344C25.75 15.7754 24.862 16.3471 23.6244 16.4932C22.54 16.6217 21.4606 16.803 20.2409 16.9819C21.0575 17.7853 21.7107 18.5158 22.4532 19.1379C23.6576 20.1454 24.0021 21.3544 23.6474 22.8455C23.4254 23.7775 23.3182 24.7396 23.132 25.8605C24.2419 25.2912 25.2116 24.8353 26.1353 24.3064C27.2937 23.644 28.4062 23.6515 29.5647 24.2938C30.4986 24.8127 31.4605 25.2812 32.5782 25.8605C32.3842 24.7044 32.2643 23.717 32.0449 22.7523C31.7208 21.3292 32.0449 20.1756 33.1957 19.2135C33.9714 18.5636 34.6578 17.808 35.5075 16.9793C34.2393 16.793 33.2135 16.6066 32.1776 16.5033C30.8533 16.3723 29.9347 15.7628 29.3861 14.5487C28.9344 13.5513 28.4062 12.5917 27.8551 11.5011V11.5036Z" fill="black"/>
<path d="M23.1651 59.0476C23.1651 58.486 23.1421 57.9218 23.1702 57.3601C23.211 56.539 23.7596 55.9697 24.5124 55.9269C25.2472 55.8841 25.9592 56.4332 25.9949 57.214C26.0536 58.491 26.0536 59.7756 25.9949 61.0551C25.9566 61.8586 25.2957 62.3598 24.5175 62.3296C23.7469 62.2968 23.211 61.7578 23.1702 60.9216C23.1421 60.2969 23.1651 59.6723 23.1651 59.0476Z" fill="black"/>
</g>
<defs>
<clipPath id="clip0_92_74">
<rect width="97.7945" height="84.9375" fill="white" transform="translate(0.057373 0.803955)"/>
</clipPath>
</defs>
</svg>
